<?xml version="1.0" standalone="no"?>
<!DOCTYPE svg PUBLIC "-//W3C//DTD SVG 20010904//EN"
 "http://www.w3.org/TR/2001/REC-SVG-20010904/DTD/svg10.dtd">
<svg version="1.0" xmlns="http://www.w3.org/2000/svg"
 width="128.000000pt" height="128.000000pt" viewBox="0 0 128.000000 128.000000"
 preserveAspectRatio="xMidYMid meet">
<metadata>
Created by potrace 1.11, written by Peter Selinger 2001-2013
</metadata>
<g transform="translate(0.000000,128.000000) scale(0.100000,-0.100000)"
fill="#000000" stroke="none">
<path d="M540 1230 c-34 -10 -90 -39 -119 -61 -13 -11 -34 -19 -46 -19 -32 0
-213 -182 -217 -217 -2 -18 -14 -33 -38 -46 -35 -19 -80 -63 -80 -79 0 -10
137 -148 148 -148 15 0 72 62 72 79 0 23 20 41 44 41 11 0 29 9 41 20 l21 20
52 -50 c29 -28 52 -59 52 -69 0 -11 4 -23 10 -26 5 -3 14 -15 20 -25 9 -17
-17 -47 -195 -227 -223 -226 -234 -242 -202 -309 28 -59 101 -85 162 -60 17 7
120 104 230 214 110 111 204 202 209 202 24 0 280 -287 383 -429 4 -6 153 141
153 150 0 3 -44 42 -97 86 -113 93 -259 232 -296 284 l-26 35 84 84 c82 81 87
85 132 86 123 3 227 128 199 239 -10 41 -39 29 -107 -45 l-64 -69 -43 11 c-39
10 -43 14 -54 57 -7 25 -13 54 -13 63 0 9 29 47 64 83 35 36 61 68 58 71 -10
10 -85 17 -120 10 -46 -9 -122 -77 -138 -124 -7 -20 -12 -58 -11 -83 0 -43 -3
-49 -69 -117 l-70 -73 -29 21 c-15 11 -33 20 -38 20 -5 0 -35 25 -65 55 -55
53 -56 55 -36 69 14 9 21 25 21 48 0 27 8 39 47 69 49 38 123 68 156 63 11 -2
35 -6 53 -9 17 -3 32 -2 32 2 0 11 -71 73 -105 90 -33 18 -126 25 -165 13z
m-292 -1062 c3 -31 -1 -40 -24 -54 -25 -17 -27 -17 -40 1 -20 27 -17 52 7 76
30 30 53 21 57 -23z"/>
</g>
</svg>
